<svg width="24" height="24" viewBox="0 0 24 24" fill="none" xmlns="http://www.w3.org/2000/svg">
<path d="M6 12.6667H10V11.3333H6V12.6667Z" fill="#222426"/>
<path d="M18 11.3333H14V12.6667H18V11.3333Z" fill="#222426"/>
<path d="M6 16.6667H10V15.3333H6V16.6667Z" fill="#222426"/>
<path d="M14 16.6667H18V15.3333H14V16.6667Z" fill="#222426"/>
<path fill-rule="evenodd" clip-rule="evenodd" d="M16.6667 4.66667H7.33333V2H6V4.66667H4C2.89543 4.66667 2 5.5621 2 6.66667V20C2 21.1046 2.89543 22 4 22H20C21.1046 22 22 21.1046 22 20V6.66667C22 5.5621 21.1046 4.66667 20 4.66667H18V2H16.6667V4.66667ZM4 6H6V8.66667H7.33333V6H16.6667V8.66667H18V6H20C20.3682 6 20.6667 6.29848 20.6667 6.66667V20C20.6667 20.3682 20.3682 20.6667 20 20.6667H4C3.63181 20.6667 3.33333 20.3682 3.33333 20V6.66667C3.33333 6.29848 3.63181 6 4 6Z" fill="#222426"/>
</svg>
