<svg width="24" height="24" viewBox="0 0 24 24" fill="none" xmlns="http://www.w3.org/2000/svg">
<path d="M6.61542 13.1111H8.15388V14.5926H6.61542V13.1111Z" fill="#222426"/>
<path d="M17.3846 17.5556V16.0741H6.61542V17.5556H17.3846Z" fill="#222426"/>
<path fill-rule="evenodd" clip-rule="evenodd" d="M11.5385 2.14815C11.812 1.95062 12.1881 1.95062 12.4616 2.14815L22 9.03704V19.7778C22 21.0051 20.9668 22 19.6923 22H4.30772C3.03322 22 2.00003 21.0051 2.00003 19.7778V9.03704L11.5385 2.14815ZM3.53849 9.77778V19.7778C3.53849 20.1869 3.88289 20.5185 4.30772 20.5185H19.6923C20.1172 20.5185 20.4616 20.1869 20.4616 19.7778V9.77778L12 3.66667L3.53849 9.77778Z" fill="#222426"/>
</svg>
